<svg id="Layer_1" data-name="Layer 1" xmlns="http://www.w3.org/2000/svg" viewBox="0 0 64 64"><defs><style>.cls-1{fill:#424242;}</style></defs><title>Artboard 1</title><path class="cls-1" d="M53.84,50.45h-6.2a1.51,1.51,0,0,1-1.51-1.51v-6.2a1.5,1.5,0,0,1,1.51-1.51h6.2a1.51,1.51,0,0,1,1.51,1.51v6.2A1.52,1.52,0,0,1,53.84,50.45ZM26.16,22.77H20a1.51,1.51,0,0,1-1.51-1.51v-6.2a1.52,1.52,0,0,0-1.51-1.51H1.51A1.52,1.52,0,0,0,0,15.06v6.2a1.51,1.51,0,0,0,1.51,1.51h6.2a1.52,1.52,0,0,1,1.52,1.52v6.2A1.51,1.51,0,0,0,10.74,32h6.2a1.52,1.52,0,0,1,1.51,1.51v6.2A1.52,1.52,0,0,0,20,41.23h6.2a1.52,1.52,0,0,0,1.52-1.52V24.29A1.52,1.52,0,0,0,26.16,22.77ZM10.74,50.45h6.2a1.52,1.52,0,0,0,1.51-1.51v-6.2a1.51,1.51,0,0,0-1.51-1.51h-6.2a1.5,1.5,0,0,0-1.51,1.51v6.2A1.51,1.51,0,0,0,10.74,50.45ZM36.32,24.29V39.71a1.52,1.52,0,0,0,1.52,1.52H44a1.52,1.52,0,0,0,1.51-1.52v-6.2A1.52,1.52,0,0,1,47.06,32h6.2a1.51,1.51,0,0,0,1.51-1.51v-6.2a1.52,1.52,0,0,1,1.52-1.52h6.2A1.51,1.51,0,0,0,64,21.26v-6.2a1.52,1.52,0,0,0-1.51-1.51H47.06a1.52,1.52,0,0,0-1.51,1.51v6.2A1.51,1.51,0,0,1,44,22.77h-6.2A1.52,1.52,0,0,0,36.32,24.29ZM29.19,50.45h6.2a1.52,1.52,0,0,0,1.51-1.51v-6.2a1.51,1.51,0,0,0-1.51-1.51h-6.2a1.5,1.5,0,0,0-1.51,1.51v6.2A1.51,1.51,0,0,0,29.19,50.45Z"/></svg>